<svg version="1" xmlns="http://www.w3.org/2000/svg" viewBox="-305 212.9 116 116"><g fill="#F77B45"><path d="M-238.4 245.9c-3.2-.9-6.4-.9-9.8.3 1.6 1.6 1.1 3.2.6 4.9-1.1 4.2-2.2 8.3-3.3 12.5-1.6 6.2-3.1 12.3-4.8 18.9 2.3-.7 4.2-1.2 6.1-1.9 2.6-1 5.2-2 7.6-3.4 8.1-4.4 12.2-11.1 11.8-20.5-.3-4.9-2.8-9.3-8.2-10.8z"/><path d="M-247 212.9c-32 0-58 26-58 58s26 58 58 58 58-26 58-58-26-58-58-58zm28.1 45.7c-3.8 13.5-13 21.8-26.1 25.9-3.2 1-6.7 1.2-10.1 1.6-1 .1-1.6.3-1.8 1.4l-2.7 13.2c-.5 2-1.1 2.7-2.9 2.6-2.4-.1-4.4-1.5-4.2-3.3.3-3.7.8-7.3 1.2-11 .1-1.4.4-2.7.6-3.8-2.6-1.7-5-3.2-7.4-4.7-.1.1-.2.2-.3.2.7 1.2 1.4 2.5 2.2 3.7.7 1.1.8 1.9-.7 3.2-1.4-3.1-2.9-6-4.6-9.4 3.8-.3 7-.6 10.2-.9.1.2.1.4.2.6-1.5.4-3.1.7-5.2 1.2 2.2 1.2 4.2 2.2 6 3.2 2.3-10.6 4.6-20.9 7-31.3-3.2-1.8-3.4-5-.3-7.5 2.8-2.3 6.2-3.4 9.8-4.1 5.6-1 11.3-1.6 16.9-.6 9.9 2 15 9.7 12.2 19.8z"/></g></svg>